<?xml version="1.0" encoding="iso-8859-1"?>
<!-- Generator: Adobe Illustrator 19.0.0, SVG Export Plug-In . SVG Version: 6.00 Build 0)  -->
<svg version="1.1" id="Layer_1" xmlns="http://www.w3.org/2000/svg" xmlns:xlink="http://www.w3.org/1999/xlink" x="0px" y="0px"
	 viewBox="0 0 512 512" style="enable-background:new 0 0 512 512;" xml:space="preserve">
<g>
	<g>
		<g>
			<path d="M486.4,0H25.6C11.486,0,0,11.486,0,25.6v51.2v409.6C0,500.514,11.486,512,25.6,512h460.8c14.114,0,25.6-11.486,25.6-25.6
				V76.8V25.6C512,11.486,500.514,0,486.4,0z M17.067,25.6c0-4.702,3.831-8.533,8.533-8.533h460.8c4.702,0,8.533,3.831,8.533,8.533
				v42.667H17.067V25.6z M494.933,486.4c0,4.702-3.831,8.533-8.533,8.533H25.6c-4.702,0-8.533-3.831-8.533-8.533V85.333h477.867
				V486.4z"/>
			<circle cx="42.667" cy="42.667" r="8.533"/>
			<circle cx="76.8" cy="42.667" r="8.533"/>
			<circle cx="110.933" cy="42.667" r="8.533"/>
			<path d="M78.387,363.358c1.664,2.33,4.292,3.575,6.955,3.575c1.715,0,3.447-0.521,4.949-1.587
				c3.84-2.739,4.727-8.073,1.988-11.904l-39.125-54.775l39.125-54.775c2.739-3.831,1.852-9.165-1.988-11.904
				c-3.831-2.739-9.165-1.852-11.904,1.988l-42.667,59.733c-2.116,2.97-2.116,6.946,0,9.916L78.387,363.358z"/>
			<path d="M421.709,365.346c1.502,1.067,3.234,1.587,4.949,1.587c2.662,0,5.291-1.246,6.955-3.575l42.667-59.733
				c2.116-2.97,2.116-6.946,0-9.916l-42.667-59.733c-2.748-3.84-8.081-4.727-11.904-1.988c-3.84,2.739-4.727,8.073-1.988,11.904
				l39.125,54.775l-39.125,54.775C416.981,357.274,417.869,362.607,421.709,365.346z"/>
			<path d="M170.667,358.4c14.729,0,28.868-5.402,39.825-15.215c3.516-3.14,3.814-8.533,0.674-12.049
				c-3.14-3.507-8.533-3.814-12.058-0.666c-7.817,7.006-17.929,10.863-28.442,10.863c-23.526,0-42.667-19.14-42.667-42.667
				C128,275.14,147.14,256,170.667,256c10.513,0,20.617,3.857,28.442,10.854c3.507,3.149,8.909,2.842,12.041-0.674
				c3.14-3.507,2.842-8.9-0.666-12.041c-10.965-9.805-25.097-15.206-39.817-15.206c-32.939,0-59.733,26.795-59.733,59.733
				S137.728,358.4,170.667,358.4z"/>
			<path d="M273.067,341.333c-9.412,0-17.067-7.654-17.067-17.067c0-4.71-3.823-8.533-8.533-8.533s-8.533,3.823-8.533,8.533
				c0,18.825,15.309,34.133,34.133,34.133c18.825,0,34.133-15.309,34.133-34.133c0-18.825-15.309-34.133-34.133-34.133
				c-9.412,0-17.067-7.654-17.067-17.067c0-9.412,7.654-17.067,17.067-17.067c9.412,0,17.067,7.654,17.067,17.067
				c0,4.71,3.823,8.533,8.533,8.533s8.533-3.823,8.533-8.533c0-18.825-15.309-34.133-34.133-34.133
				c-18.825,0-34.133,15.309-34.133,34.133c0,18.825,15.309,34.133,34.133,34.133c9.412,0,17.067,7.654,17.067,17.067
				C290.133,333.679,282.479,341.333,273.067,341.333z"/>
			<path d="M366.933,341.333c-9.412,0-17.067-7.654-17.067-17.067c0-4.71-3.823-8.533-8.533-8.533s-8.533,3.823-8.533,8.533
				c0,18.825,15.309,34.133,34.133,34.133s34.133-15.309,34.133-34.133c0-18.825-15.309-34.133-34.133-34.133
				c-9.412,0-17.067-7.654-17.067-17.067c0-9.412,7.654-17.067,17.067-17.067S384,263.654,384,273.067
				c0,4.71,3.823,8.533,8.533,8.533c4.71,0,8.533-3.823,8.533-8.533c0-18.825-15.309-34.133-34.133-34.133
				S332.8,254.242,332.8,273.067c0,18.825,15.309,34.133,34.133,34.133c9.412,0,17.067,7.654,17.067,17.067
				C384,333.679,376.346,341.333,366.933,341.333z"/>
		</g>
	</g>
</g>
<g>
</g>
<g>
</g>
<g>
</g>
<g>
</g>
<g>
</g>
<g>
</g>
<g>
</g>
<g>
</g>
<g>
</g>
<g>
</g>
<g>
</g>
<g>
</g>
<g>
</g>
<g>
</g>
<g>
</g>
</svg>
